<svg width="59" height="59" viewBox="0 0 59 59" fill="none" xmlns="http://www.w3.org/2000/svg">
<path d="M11.652 40.094L7.30198 46.156L12.845 51.699L18.908 47.347C20.578 48.341 22.396 49.103 24.326 49.597L25.58 56.974H33.42L34.676 49.599C36.606 49.103 38.424 48.341 40.096 47.347L46.157 51.699L51.7 46.156L47.35 40.095C48.352 38.411 49.118 36.575 49.614 34.628L56.975 33.419V25.58L49.614 24.37C49.124 22.438 48.366 20.617 47.376 18.944L51.7 12.845L46.157 7.302L40.057 11.628C38.385 10.638 36.563 9.88 34.631 9.389L33.42 2.026H25.58L24.37 9.39C22.439 9.882 20.619 10.639 18.946 11.629L12.845 7.302L7.30198 12.844L11.628 18.944C10.645 20.604 9.89098 22.41 9.39898 24.326L2.02698 25.58V33.419L9.39998 34.673C9.89498 36.605 10.657 38.424 11.652 40.094Z" stroke="white" stroke-width="4" stroke-miterlimit="10" stroke-linecap="round" stroke-linejoin="round"/>
<path d="M26.4729 22.062C27.4079 21.681 28.4299 21.471 29.5009 21.471C33.9349 21.471 37.5289 25.066 37.5289 29.5C37.5289 33.935 33.9339 37.53 29.5009 37.53C25.0679 37.53 21.4709 33.935 21.4709 29.5C21.4709 28.736 21.5769 27.997 21.7769 27.296" stroke="white" stroke-width="4" stroke-miterlimit="10" stroke-linecap="round" stroke-linejoin="round"/>
</svg>
